<?xml version="1.0" encoding="UTF-8"?>
<svg width="1590px" height="1200px" viewBox="0 0 1590 1200" version="1.1" xmlns="http://www.w3.org/2000/svg" xmlns:xlink="http://www.w3.org/1999/xlink">
    <!-- Generator: Sketch 55.2 (78181) - https://sketchapp.com -->
    <title>Inn</title>
    <desc>Created with Sketch.</desc>
    <g id="Patterns" stroke="none" stroke-width="1" fill="none" fill-rule="evenodd">
        <g id="Inn" fill-rule="nonzero">
            <g id="Shape">
                <path d="M848.039288,261.100196 L957.064492,261.100196 L957.064492,370.137525 C942.747302,370.137525 928.569665,367.317819 915.342727,361.837603 C902.115789,356.357387 890.096851,348.325697 879.972771,338.200491 C869.84869,328.075285 861.817894,316.05501 856.338287,302.826601 C850.85868,289.598193 848.039288,275.418978 848.039288,261.100196 Z" fill="#F45B0F"></path>
                <path d="M1108.52113,478.585462 L1217.54633,478.585462 L1217.54633,587.62279 C1203.22914,587.62279 1189.0515,584.802452 1175.82457,579.322825 C1162.59763,573.843176 1150.57869,565.811617 1140.45461,555.686411 C1130.33053,545.561422 1122.29973,533.541365 1116.82013,520.312303 C1111.34052,507.08324 1108.52113,492.904462 1108.52113,478.585462 Z" fill="#E6E6E6"></path>
                <path d="M663.285767,478.585462 C693.391987,478.585462 717.798369,502.994339 717.798369,533.104126 L717.798369,587.62279 L608.773165,587.62279 L608.773165,533.104126 C608.773165,502.994339 633.179547,478.585462 663.285767,478.585462 Z" fill="#E6E6E6"></path>
                <path d="M369.507042,54.518664 C369.507042,84.6282318 345.10088,109.037328 314.99444,109.037328 L260.481838,109.037328 L260.481838,0 L314.99444,0 C345.10088,0 369.507042,24.4090963 369.507042,54.518664 Z" fill="#048ECB"></path>
                <path d="M978.280208,54.518664 C978.280208,24.4090963 1002.68659,0 1032.79281,0 L1087.30541,0 L1087.30541,109.037328 L1032.79281,109.037328 C1002.68659,109.037328 978.280208,84.6282318 978.280208,54.518664 Z" fill="#048ECB"></path>
                <path d="M1108.52113,184.774067 C1108.52113,154.664499 1132.92751,130.255403 1163.03373,130.255403 L1217.54633,130.255403 L1217.54633,239.292731 L1163.03373,239.292731 C1132.92751,239.292731 1108.52113,214.883635 1108.52113,184.774067 Z" fill="#94C0D4"></path>
                <path d="M543.06338,500.982318 C566.985826,500.982318 586.378799,520.377448 586.378799,544.302554 C586.378799,568.22766 566.985826,587.62279 543.06338,587.62279 C519.140935,587.62279 499.747961,568.22766 499.747961,544.302554 C499.747961,520.377448 519.140935,500.982318 543.06338,500.982318 Z" fill="#F45B0F"></path>
                <path d="M303.797257,370.726916 C327.719702,370.726916 347.112676,390.122046 347.112676,414.047151 C347.112676,437.972257 327.719702,457.367387 303.797257,457.367387 C279.874812,457.367387 260.481838,437.972257 260.481838,414.047151 C260.481838,390.122046 279.874812,370.726916 303.797257,370.726916 Z" fill="#E6E6E6"></path>
                <path d="M434.038176,0 C457.960622,0 477.353595,19.3951302 477.353595,43.3202358 C477.353595,67.2453413 457.960622,86.6404715 434.038176,86.6404715 C410.115731,86.6404715 390.722758,67.2453413 390.722758,43.3202358 C390.722758,19.3951302 410.115731,0 434.038176,0 Z" fill="#161616"></path>
                <path d="M782.918829,261.689587 C806.841274,261.689587 826.234248,281.084718 826.234248,305.009823 C826.234248,328.934929 806.841274,348.330059 782.918829,348.330059 C758.996384,348.330059 739.60341,328.934929 739.60341,305.009823 C739.60341,281.084718 758.996384,261.689587 782.918829,261.689587 Z" fill="#94C0D4"></path>
                <path d="M1174.23091,370.726916 C1198.15336,370.726916 1217.54633,390.122046 1217.54633,414.047151 C1217.54633,437.972257 1198.15336,457.367387 1174.23091,457.367387 C1150.30847,457.367387 1130.91549,437.972257 1130.91549,414.047151 C1130.91549,390.122046 1150.30847,370.726916 1174.23091,370.726916 Z" fill="#FFD726"></path>
                <path d="M348.291327,982.514735 C348.291327,996.833735 345.471935,1011.01251 339.992328,1024.24158 C334.512722,1037.47064 326.481925,1049.4907 316.357845,1059.61568 C306.233764,1069.74089 294.214826,1077.77236 280.987888,1083.25214 C267.76095,1088.7317 253.583313,1091.55206 239.266123,1091.55206 L239.266123,982.514735 L348.291327,982.514735 Z" fill="#94C0D4"></path>
                <path d="M696.582654,1113.35953 C689.462754,1113.35953 682.412253,1111.94946 675.834533,1109.20957 C669.256812,1106.46968 663.279827,1102.45383 658.244065,1097.39145 C653.210471,1092.32884 649.215693,1086.31871 646.491784,1079.70428 C643.767875,1073.08964 642.364715,1066.00026 642.364715,1058.84086 C642.364715,1051.68147 643.767875,1044.59208 646.491784,1037.97744 C649.215693,1031.36302 653.210471,1025.35288 658.244065,1020.29028 C663.279827,1015.2279 669.256812,1011.21205 675.834533,1008.47216 C682.412253,1005.73227 689.462754,1004.3222 696.582654,1004.3222 L696.582654,1113.35953 Z" fill="#FFD726"></path>
                <path d="M457.316531,721.414538 C450.196631,721.414538 443.14613,720.003595 436.56841,717.264578 C429.990689,714.52556 424.013704,710.508625 418.977942,705.447112 C413.944348,700.383418 409.94957,694.373281 407.225661,687.759077 C404.501752,681.144872 403.098592,674.055265 403.098592,666.895874 C403.098592,659.736483 404.501752,652.646876 407.225661,646.032672 C409.94957,639.418468 413.944348,633.40833 418.977942,628.344637 C424.013704,623.283124 429.990689,619.266189 436.56841,616.527171 C443.14613,613.788153 450.196631,612.37721 457.316531,612.37721 L457.316531,721.414538 Z" fill="#161616"></path>
                <path d="M0,1090.96267 C7.12000115,1090.96267 14.1702894,1092.37274 20.7483174,1095.11263 C27.3262587,1097.85252 33.303248,1101.86837 38.3379289,1106.93075 C43.3726098,1111.99336 47.3660887,1118.00349 50.0908672,1124.61792 C52.8156456,1131.23256 54.2179392,1138.32194 54.2179392,1145.48134 C54.2179392,1152.64073 52.8156456,1159.73012 50.0908672,1166.34476 C47.3660887,1172.95918 43.3726098,1178.96934 38.3379289,1184.03185 C33.303248,1189.09437 27.3262587,1193.11019 20.7483174,1195.85002 C14.1702894,1198.58983 7.12000115,1200 0,1200 L0,1090.96267 Z" fill="#161616"></path>
                <path d="M218.050408,1200 C203.733,1200 189.555798,1197.18728 176.328207,1191.72247 C163.100833,1186.25763 151.081894,1178.24778 140.958032,1168.14994 C130.833951,1158.05231 122.803373,1146.06474 117.324202,1132.87143 C111.84525,1119.67812 109.025204,1105.53767 109.025204,1091.25737 C109.025204,1076.97707 111.84525,1062.83661 117.324202,1049.6433 C122.803373,1036.45021 130.833951,1024.46242 140.958032,1014.3648 C151.081894,1004.26696 163.100833,996.257194 176.328207,990.792224 C189.555798,985.327472 203.733,982.514735 218.050408,982.514735 L218.050408,1200 Z" fill="#FFD726"></path>
                <path d="M109.025204,720.825147 L218.050408,720.825147 L218.050408,829.862475 C203.733,829.862475 189.555798,827.04277 176.328207,821.562554 C163.100833,816.082338 151.081894,808.050648 140.958032,797.925442 C130.833951,787.800236 122.803373,775.779961 117.324202,762.551552 C111.84525,749.323143 109.025204,735.143929 109.025204,720.825147 Z" fill="#F45B0F"></path>
                <path d="M239.266123,612.37721 C253.583313,612.37721 267.76095,615.189295 280.987888,620.654699 C294.214826,626.120104 306.233764,634.130086 316.357845,644.227927 C326.481925,654.325768 334.512722,666.313556 339.992328,679.506212 C345.471935,692.698868 348.291327,706.83976 348.291327,721.119843 C348.291327,735.399925 345.471935,749.540817 339.992328,762.733473 C334.512722,775.92613 326.481925,787.913917 316.357845,798.011758 C306.233764,808.109599 294.214826,816.119582 280.987888,821.584986 C267.76095,827.050391 253.583313,829.862475 239.266123,829.862475 L239.266123,612.37721 Z" fill="#F45B0F"></path>
                <path d="M479.121572,1200 C479.121572,1185.68102 481.933343,1171.50222 487.39814,1158.27316 C492.862937,1145.0441 500.872029,1133.02404 510.968747,1122.89905 C521.065465,1112.77384 533.05192,1104.74237 546.243109,1099.26259 C559.434298,1093.78303 573.573618,1090.96267 587.852113,1090.96267 C602.130607,1090.96267 616.269927,1093.78303 629.461116,1099.26259 C642.652305,1104.74237 654.63876,1112.77384 664.735478,1122.89905 C674.832196,1133.02404 682.841288,1145.0441 688.306085,1158.27316 C693.770882,1171.50222 696.582654,1185.68102 696.582654,1200 L479.121572,1200 Z" fill="#94C0D4"></path>
                <path d="M935.259451,878.192534 C935.259451,892.511316 932.44768,906.69053 926.982883,919.918939 C921.518086,933.147348 913.508994,945.167623 903.412276,955.292829 C893.315558,965.418035 881.329103,973.449725 868.137914,978.929941 C854.946725,984.409503 840.807405,987.229862 826.52891,987.229862 C812.250416,987.229862 798.111096,984.409503 784.919907,978.929941 C771.728718,973.449725 759.742263,965.418035 749.645545,955.292829 C739.548827,945.167623 731.539735,933.147348 726.074938,919.918939 C720.610141,906.69053 717.798369,892.511316 717.798369,878.192534 L935.259451,878.192534 Z" fill="#FFD726"></path>
            </g>
        </g>
    </g>
</svg>